<?xml version="1.0" encoding="UTF-8" standalone="no"?>
<svg
   xmlns:dc="http://purl.org/dc/elements/1.1/"
   xmlns:cc="http://creativecommons.org/ns#"
   xmlns:rdf="http://www.w3.org/1999/02/22-rdf-syntax-ns#"
   xmlns:svg="http://www.w3.org/2000/svg"
   xmlns="http://www.w3.org/2000/svg"
   xmlns:sodipodi="http://sodipodi.sourceforge.net/DTD/sodipodi-0.dtd"
   xmlns:inkscape="http://www.inkscape.org/namespaces/inkscape"
   width="80.133804mm"
   height="80.133804mm"
   viewBox="0 0 80.133805 80.133805"
   version="1.1"
   id="svg8"
   inkscape:export-filename="C:\Users\DeltaRays\Downloads\Downloads.png"
   inkscape:export-xdpi="96"
   inkscape:export-ydpi="96"
   inkscape:version="1.0 (4035a4fb49, 2020-05-01)"
   sodipodi:docname="Gamma.svg">
  <defs
     id="defs2" />
  <sodipodi:namedview
     id="base"
     pagecolor="#ffffff"
     bordercolor="#666666"
     borderopacity="1.0"
     inkscape:pageopacity="0.0"
     inkscape:pageshadow="2"
     inkscape:zoom="2.8"
     inkscape:cx="13.465159"
     inkscape:cy="22.77689"
     inkscape:document-units="mm"
     inkscape:current-layer="layer1"
     inkscape:document-rotation="0"
     showgrid="false"
     inkscape:window-width="3840"
     inkscape:window-height="2050"
     inkscape:window-x="3828"
     inkscape:window-y="-12"
     inkscape:window-maximized="1" />
  <metadata
     id="metadata5">
    <rdf:RDF>
      <cc:Work
         rdf:about="">
        <dc:format>image/svg+xml</dc:format>
        <dc:type
           rdf:resource="http://purl.org/dc/dcmitype/StillImage" />
        <dc:title />
      </cc:Work>
    </rdf:RDF>
  </metadata>
  <g
     inkscape:label="Layer 1"
     inkscape:groupmode="layer"
     id="layer1"
     transform="translate(-35.353332,-67.673798)">
    <path
       inkscape:export-ydpi="324.57712"
       inkscape:export-xdpi="324.57712"
       inkscape:export-filename="C:\Users\DeltaRays\Downloads\path847.png"
       sodipodi:type="star"
       style="fill:#800080;fill-opacity:1;stroke:#ffffff;stroke-width:0;stroke-linecap:round;stroke-miterlimit:4;stroke-dasharray:none;stroke-opacity:0.905325"
       id="path847"
       sodipodi:sides="8"
       sodipodi:cx="75.420235"
       sodipodi:cy="107.7407"
       sodipodi:r1="43.337273"
       sodipodi:r2="40.038422"
       sodipodi:arg1="-0.39109684"
       sodipodi:arg2="0.0016022421"
       inkscape:flatsided="true"
       inkscape:rounded="-0.02"
       inkscape:randomized="0"
       d="m 115.48517,91.220416 c -0.25288,-0.613288 -0.30799,33.781344 -0.0531,33.168874 0.25485,-0.61248 -24.104799,23.66923 -23.491512,23.41635 0.613288,-0.25288 -33.781344,-0.30799 -33.168869,-0.0531 0.612474,0.25484 -23.669236,-24.1048 -23.416354,-23.49152 0.252881,0.61329 0.30799,-33.78134 0.05314,-33.168866 -0.254845,0.612474 24.104799,-23.669236 23.491512,-23.416354 -0.613288,0.252881 33.781344,0.30799 33.16887,0.05314 -0.612474,-0.254845 23.669239,24.1048 23.416349,23.491512 z" />
    <g
       aria-label="γ"
       transform="matrix(0.84125,0,0,0.84125,12.962197,-3.472735)"
       id="text835"
       style="font-style:normal;font-variant:normal;font-weight:normal;font-stretch:normal;font-size:141.111px;line-height:1.25;font-family:serif;-inkscape-font-specification:serif;white-space:pre;inline-size:94.881;fill:#fffffd;fill-opacity:1;stroke:none;stroke-width:0.264583">
      <path
         d="m 87.497263,107.71043 h 11.747061 l -22.866853,30.64868 c 0.570245,3.27989 0.855368,6.14675 0.855368,8.60058 0,6.82702 -1.99586,10.24053 -5.987579,10.24053 -2.889246,0 -4.333868,-1.43343 -4.333868,-4.30029 0,-3.7415 2.128917,-8.43052 6.386752,-14.06706 -0.836361,-3.49854 -2.014868,-7.71379 -3.535523,-12.64577 -1.48264,-4.93198 -3.022304,-8.46696 -4.618991,-10.60496 -1.558671,-2.13799 -3.822536,-3.43012 -6.7289,-3.20699 -2.301589,0.1767 -4.480599,1.15287 -7.698317,6.85131 v 0 c -4.368654,-4.80149 1.672721,-12.02624 9.123932,-12.02624 4.295851,0 7.489228,1.6278 9.580128,4.88338 2.090901,3.2313 4.238826,10.27697 6.443777,21.13703 z"
         style="font-style:normal;font-variant:normal;font-weight:normal;font-stretch:normal;font-size:141.111px;font-family:serif;-inkscape-font-specification:serif;fill:#fffffd;fill-opacity:1;stroke-width:0.175054"
         id="path837"
         sodipodi:nodetypes="cccssscccsccsccc" />
    </g>
  </g>
</svg>
