<?xml version="1.0" encoding="UTF-8" standalone="no"?>
<svg
   xmlns:dc="http://purl.org/dc/elements/1.1/"
   xmlns:cc="http://creativecommons.org/ns#"
   xmlns:rdf="http://www.w3.org/1999/02/22-rdf-syntax-ns#"
   xmlns:svg="http://www.w3.org/2000/svg"
   xmlns="http://www.w3.org/2000/svg"
   xmlns:sodipodi="http://sodipodi.sourceforge.net/DTD/sodipodi-0.dtd"
   xmlns:inkscape="http://www.inkscape.org/namespaces/inkscape"
   width="80.133804mm"
   height="80.133804mm"
   viewBox="0 0 80.133805 80.133805"
   version="1.1"
   id="svg8"
   inkscape:export-filename="C:\Users\DeltaRays\Downloads\Downloads.png"
   inkscape:export-xdpi="96"
   inkscape:export-ydpi="96"
   inkscape:version="1.0 (4035a4fb49, 2020-05-01)"
   sodipodi:docname="GammaDev.svg">
  <defs
     id="defs2" />
  <sodipodi:namedview
     inkscape:window-maximized="1"
     inkscape:window-y="-12"
     inkscape:window-x="3828"
     inkscape:window-height="2050"
     inkscape:window-width="3840"
     showgrid="false"
     inkscape:document-rotation="0"
     inkscape:current-layer="layer1"
     inkscape:document-units="mm"
     inkscape:cy="291.99589"
     inkscape:cx="420.81686"
     inkscape:zoom="1.979899"
     inkscape:pageshadow="2"
     inkscape:pageopacity="0.0"
     borderopacity="1.0"
     bordercolor="#666666"
     pagecolor="#ffffff"
     id="base" />
  <metadata
     id="metadata5">
    <rdf:RDF>
      <cc:Work
         rdf:about="">
        <dc:format>image/svg+xml</dc:format>
        <dc:type
           rdf:resource="http://purl.org/dc/dcmitype/StillImage" />
        <dc:title></dc:title>
      </cc:Work>
    </rdf:RDF>
  </metadata>
  <g
     transform="translate(-35.353332,-67.673798)"
     id="layer1"
     inkscape:groupmode="layer"
     inkscape:label="Layer 1">
    <path
       inkscape:export-ydpi="96"
       inkscape:export-xdpi="96"
       inkscape:export-filename="C:\Users\DeltaRays\Downloads\path1163.png"
       d="m 75.289185,68.184868 a 39.555893,39.555893 0 0 0 -7.165119,0.679345 l -1.431444,5.895841 a 34.115541,34.115541 0 0 0 -8.42213,3.488766 l -5.18143,-3.156544 A 39.555893,39.555893 0 0 0 42.770901,85.409558 l 3.157421,5.182305 a 34.115541,34.115541 0 0 0 -3.487889,8.421253 l -5.896716,1.431454 a 39.555893,39.555893 0 0 0 -0.679346,7.2966 39.555893,39.555893 0 0 0 0.679346,7.29573 l 5.895839,1.43145 a 34.115541,34.115541 0 0 0 3.488766,8.42124 l -3.157421,5.18231 a 39.555893,39.555893 0 0 0 10.318161,10.31817 l 5.182305,-3.15743 a 34.115541,34.115541 0 0 0 8.421255,3.4879 l 1.431444,5.89671 a 39.555893,39.555893 0 0 0 7.295731,0.67934 39.555893,39.555893 0 0 0 7.295729,-0.67934 l 1.431446,-5.89585 a 34.115541,34.115541 0 0 0 8.422126,-3.48876 l 5.182308,3.15743 A 39.555893,39.555893 0 0 0 108.0687,130.07278 l -3.15743,-5.18231 a 34.115541,34.115541 0 0 0 3.48876,-8.42212 l 5.89673,-1.43145 a 39.555893,39.555893 0 0 0 0.67934,-7.29573 39.555893,39.555893 0 0 0 -0.67934,-7.2966 l -5.89585,-1.431454 a 34.115541,34.115541 0 0 0 -3.48876,-8.422126 l 3.15655,-5.181432 A 39.555893,39.555893 0 0 0 97.751406,75.091399 l -5.182308,3.157421 a 34.115541,34.115541 0 0 0 -8.422126,-3.487889 l -1.431446,-5.896718 a 39.555893,39.555893 0 0 0 -7.295729,-0.679345 39.555893,39.555893 0 0 0 -0.130612,0 z"
       style="fill:#800080;fill-opacity:1;stroke:#ffffff;stroke-width:0;stroke-linecap:round;stroke-opacity:0.905325"
       id="path1163" />
    <g
       inkscape:export-ydpi="96"
       inkscape:export-xdpi="96"
       inkscape:export-filename="C:\Users\DeltaRays\Downloads\path1163.png"
       style="font-style:normal;font-variant:normal;font-weight:normal;font-stretch:normal;font-size:141.111px;line-height:1.25;font-family:serif;-inkscape-font-specification:serif;white-space:pre;inline-size:94.881;fill:#fffffd;fill-opacity:1;stroke:none;stroke-width:0.264583"
       id="text835"
       transform="matrix(0.84125,0,0,0.84125,12.962197,-3.472735)"
       aria-label="γ">
      <path
         sodipodi:nodetypes="cccssscccsccsccc"
         id="path837"
         style="font-style:normal;font-variant:normal;font-weight:normal;font-stretch:normal;font-size:141.111px;font-family:serif;-inkscape-font-specification:serif;fill:#fffffd;fill-opacity:1;stroke-width:0.175054"
         d="m 87.497263,107.71043 h 11.747061 l -22.866853,30.64868 c 0.570245,3.27989 0.855368,6.14675 0.855368,8.60058 0,6.82702 -1.99586,10.24053 -5.987579,10.24053 -2.889246,0 -4.333868,-1.43343 -4.333868,-4.30029 0,-3.7415 2.128917,-8.43052 6.386752,-14.06706 -0.836361,-3.49854 -2.014868,-7.71379 -3.535523,-12.64577 -1.48264,-4.93198 -3.022304,-8.46696 -4.618991,-10.60496 -1.558671,-2.13799 -3.822536,-3.43012 -6.7289,-3.20699 -2.301589,0.1767 -4.480599,1.15287 -7.698317,6.85131 v 0 c -4.368654,-4.80149 1.672721,-12.02624 9.123932,-12.02624 4.295851,0 7.489228,1.6278 9.580128,4.88338 2.090901,3.2313 4.238826,10.27697 6.443777,21.13703 z" />
    </g>
  </g>
</svg>
